<?xml version="1.0" standalone="no"?>
<!DOCTYPE svg PUBLIC "-//W3C//DTD SVG 20010904//EN"
 "http://www.w3.org/TR/2001/REC-SVG-20010904/DTD/svg10.dtd">
<svg version="1.0" xmlns="http://www.w3.org/2000/svg"
 width="1280.000000pt" height="1157.000000pt" viewBox="0 0 1280.000000 1157.000000"
 preserveAspectRatio="xMidYMid meet">
<metadata>
Created by potrace 1.15, written by Peter Selinger 2001-2017
</metadata>
<g transform="translate(0.000000,1157.000000) scale(0.100000,-0.100000)"
fill="#000000" stroke="none">
<path d="M3440 11559 c-318 -36 -618 -154 -880 -347 -137 -102 -314 -285 -410
-426 l-34 -50 -11 55 c-23 110 -62 166 -142 201 -58 25 -120 20 -190 -16 -60
-32 -98 -65 -156 -138 l-45 -57 -39 33 c-159 135 -340 201 -487 177 -107 -17
-207 -70 -292 -155 -305 -304 -483 -974 -544 -2045 -12 -204 -16 -838 -6 -848
7 -7 127 -25 132 -20 2 2 29 91 59 198 120 420 304 957 426 1242 125 293 245
510 385 697 71 97 209 250 224 250 4 0 10 -28 12 -63 13 -164 121 -271 254
-251 24 3 69 22 100 40 31 19 58 34 59 34 2 0 -2 -19 -8 -42 -7 -26 -11 -139
-11 -283 0 -223 1 -249 26 -366 165 -769 765 -1337 1527 -1443 57 -8 104 -16
105 -18 2 -2 -52 -129 -119 -283 -67 -154 -169 -390 -227 -525 -58 -135 -156
-362 -218 -505 -262 -607 -341 -789 -344 -792 -2 -3 -1418 497 -1584 558 -21
8 -22 11 -9 36 29 55 57 196 57 279 0 152 -36 256 -123 351 -219 239 -619 118
-826 -248 -93 -166 -125 -387 -77 -540 54 -176 188 -287 355 -297 157 -9 287
45 417 173 45 44 88 91 97 104 l16 24 811 -288 c486 -173 809 -293 806 -299
-2 -6 -44 -101 -91 -211 -48 -110 -172 -396 -275 -635 -103 -239 -429 -994
-724 -1678 -295 -683 -536 -1245 -536 -1247 0 -3 410 -5 910 -5 l910 0 0 -405
c0 -223 -3 -405 -6 -405 -3 0 -52 10 -107 22 -133 28 -369 30 -500 5 -273 -54
-476 -181 -563 -353 -38 -75 -39 -80 -39 -179 0 -97 2 -104 37 -177 45 -91
141 -186 245 -244 80 -45 228 -96 333 -115 112 -20 375 -18 480 5 399 85 630
317 589 591 -20 132 -118 262 -260 346 l-69 41 0 434 0 434 775 0 775 0 0
-429 0 -428 -67 -39 c-141 -82 -243 -220 -261 -350 -41 -312 256 -559 729
-606 255 -26 548 39 724 159 290 197 314 516 56 736 -98 84 -269 157 -441 188
-120 22 -384 17 -500 -9 -52 -12 -95 -22 -97 -22 -2 0 -3 180 -3 400 l0 400
910 0 c501 0 910 3 910 6 0 6 -19 51 -310 724 -106 245 -205 474 -220 510 -15
36 -114 265 -220 510 -106 245 -205 474 -220 510 -15 36 -114 265 -220 510
-253 586 -409 948 -426 986 l-13 31 810 288 810 288 16 -24 c9 -13 52 -60 97
-104 130 -128 260 -182 417 -173 235 14 395 229 376 506 -22 316 -242 607
-521 687 -84 24 -204 16 -280 -18 -110 -50 -196 -160 -231 -292 -29 -114 -13
-297 36 -413 l19 -43 -23 -8 c-149 -55 -1580 -561 -1583 -559 -2 3 -584 1349
-811 1878 -42 96 -82 187 -89 202 -14 26 -13 27 18 32 377 52 655 160 913 355
422 318 694 821 723 1336 7 123 1 320 -13 408 l-7 48 47 -30 c65 -41 137 -57
193 -42 83 23 156 118 168 219 12 104 8 102 70 41 157 -154 333 -417 464 -694
168 -355 410 -1041 550 -1563 l22 -83 62 7 c33 3 66 11 71 16 13 12 9 640 -5
883 -53 894 -194 1515 -420 1858 -121 183 -254 282 -416 308 -136 22 -306 -36
-458 -155 l-70 -54 -29 41 c-77 106 -199 187 -282 187 -54 -1 -113 -29 -153
-75 -38 -43 -50 -69 -66 -143 l-11 -53 -72 98 c-84 114 -244 276 -357 363
-363 278 -836 410 -1286 359z"/>
<path d="M9855 11248 c-697 -78 -1297 -565 -1524 -1236 -148 -437 -127 -912
59 -1344 179 -417 538 -772 958 -950 183 -78 315 -110 585 -143 l47 -6 0 -901
c0 -716 -3 -899 -12 -895 -7 2 -384 136 -838 297 -454 161 -826 294 -828 296
-2 1 3 15 11 31 28 55 57 195 57 277 -1 208 -82 356 -237 433 -73 36 -81 38
-172 37 -71 -1 -111 -7 -154 -22 -314 -114 -538 -506 -477 -833 5 -30 25 -85
44 -124 106 -215 330 -286 564 -179 91 42 180 111 243 191 l50 62 107 -38 c59
-21 452 -161 875 -311 l767 -273 0 -649 0 -648 -715 2 -715 3 0 -1177 0 -1178
295 0 295 0 0 -456 0 -456 -22 6 c-132 36 -341 52 -478 37 -395 -45 -666 -229
-710 -483 -29 -167 58 -339 229 -452 385 -256 1060 -207 1338 97 128 140 155
308 77 473 -36 76 -148 188 -231 232 l-63 33 0 485 0 484 303 0 302 0 69 323
c39 177 77 358 87 402 9 44 19 73 22 65 6 -16 154 -700 164 -757 l6 -33 303 0
304 0 0 -477 0 -478 -60 -33 c-126 -69 -235 -198 -266 -315 -117 -439 529
-778 1164 -612 350 92 552 319 511 574 -35 221 -255 395 -589 467 -155 33
-443 23 -597 -22 l-23 -6 0 451 0 451 295 0 295 0 0 1175 0 1175 -715 2 -715
3 0 644 c0 354 1 645 3 647 3 3 1523 545 1679 599 l67 24 50 -64 c91 -116 249
-214 378 -234 79 -12 178 1 247 34 64 30 144 112 180 183 163 321 -55 820
-418 957 -253 95 -492 -29 -561 -290 -29 -113 -13 -304 35 -412 l19 -44 -32
-13 c-37 -16 -1615 -577 -1637 -583 -13 -4 -15 101 -15 896 l0 900 55 6 c236
25 400 66 582 143 805 341 1262 1233 1072 2092 -111 497 -406 915 -834 1181
-335 208 -759 302 -1155 257z"/>
</g>
</svg>
